<svg xmlns="http://www.w3.org/2000/svg" version="1.1" xmlns:xlink="http://www.w3.org/1999/xlink" xmlns:svgjs="http://svgjs.com/svgjs" width="1440" height="560" preserveAspectRatio="none" viewBox="0 0 1440 560"><g mask="url(&quot;#SvgjsMask1047&quot;)" fill="none"><rect width="1440" height="560" x="0" y="0" fill="rgba(15, 14, 23, 1)"></rect><path d="M256 104L255 386" stroke-width="10" stroke="url(#SvgjsLinearGradient1048)" stroke-linecap="round" class="Up"></path><path d="M33 521L32 827" stroke-width="10" stroke="url(#SvgjsLinearGradient1049)" stroke-linecap="round" class="Down"></path><path d="M914 460L913 783" stroke-width="10" stroke="url(#SvgjsLinearGradient1049)" stroke-linecap="round" class="Down"></path><path d="M846 178L845 -168" stroke-width="10" stroke="url(#SvgjsLinearGradient1049)" stroke-linecap="round" class="Down"></path><path d="M584 429L583 744" stroke-width="6" stroke="url(#SvgjsLinearGradient1048)" stroke-linecap="round" class="Up"></path><path d="M919 356L918 644" stroke-width="10" stroke="url(#SvgjsLinearGradient1049)" stroke-linecap="round" class="Down"></path><path d="M639 137L638 499" stroke-width="10" stroke="url(#SvgjsLinearGradient1048)" stroke-linecap="round" class="Up"></path><path d="M184 495L183 201" stroke-width="8" stroke="url(#SvgjsLinearGradient1049)" stroke-linecap="round" class="Down"></path><path d="M1416 545L1415 256" stroke-width="8" stroke="url(#SvgjsLinearGradient1048)" stroke-linecap="round" class="Up"></path><path d="M1435 247L1434 512" stroke-width="10" stroke="url(#SvgjsLinearGradient1049)" stroke-linecap="round" class="Down"></path><path d="M233 516L232 843" stroke-width="8" stroke="url(#SvgjsLinearGradient1048)" stroke-linecap="round" class="Up"></path><path d="M1028 59L1027 361" stroke-width="6" stroke="url(#SvgjsLinearGradient1049)" stroke-linecap="round" class="Down"></path><path d="M299 504L298 881" stroke-width="10" stroke="url(#SvgjsLinearGradient1048)" stroke-linecap="round" class="Up"></path><path d="M641 85L640 492" stroke-width="6" stroke="url(#SvgjsLinearGradient1049)" stroke-linecap="round" class="Down"></path><path d="M532 96L531 430" stroke-width="6" stroke="url(#SvgjsLinearGradient1049)" stroke-linecap="round" class="Down"></path><path d="M318 325L317 -84" stroke-width="8" stroke="url(#SvgjsLinearGradient1048)" stroke-linecap="round" class="Up"></path><path d="M422 276L421 87" stroke-width="6" stroke="url(#SvgjsLinearGradient1048)" stroke-linecap="round" class="Up"></path><path d="M903 51L902 319" stroke-width="8" stroke="url(#SvgjsLinearGradient1048)" stroke-linecap="round" class="Up"></path><path d="M453 399L452 38" stroke-width="8" stroke="url(#SvgjsLinearGradient1049)" stroke-linecap="round" class="Down"></path><path d="M1084 179L1083 -35" stroke-width="8" stroke="url(#SvgjsLinearGradient1048)" stroke-linecap="round" class="Up"></path><path d="M967 79L966 248" stroke-width="6" stroke="url(#SvgjsLinearGradient1049)" stroke-linecap="round" class="Down"></path><path d="M717 440L716 52" stroke-width="8" stroke="url(#SvgjsLinearGradient1048)" stroke-linecap="round" class="Up"></path><path d="M43 497L42 241" stroke-width="10" stroke="url(#SvgjsLinearGradient1048)" stroke-linecap="round" class="Up"></path><path d="M754 133L753 275" stroke-width="6" stroke="url(#SvgjsLinearGradient1048)" stroke-linecap="round" class="Up"></path><path d="M1017 29L1016 265" stroke-width="6" stroke="url(#SvgjsLinearGradient1049)" stroke-linecap="round" class="Down"></path><path d="M130 39L129 -368" stroke-width="8" stroke="url(#SvgjsLinearGradient1049)" stroke-linecap="round" class="Down"></path><path d="M1125 149L1124 542" stroke-width="6" stroke="url(#SvgjsLinearGradient1049)" stroke-linecap="round" class="Down"></path><path d="M610 61L609 294" stroke-width="8" stroke="url(#SvgjsLinearGradient1048)" stroke-linecap="round" class="Up"></path><path d="M325 538L324 903" stroke-width="8" stroke="url(#SvgjsLinearGradient1048)" stroke-linecap="round" class="Up"></path><path d="M220 79L219 -183" stroke-width="8" stroke="url(#SvgjsLinearGradient1048)" stroke-linecap="round" class="Up"></path><path d="M346 360L345 -3" stroke-width="6" stroke="url(#SvgjsLinearGradient1048)" stroke-linecap="round" class="Up"></path><path d="M1201 546L1200 212" stroke-width="6" stroke="url(#SvgjsLinearGradient1049)" stroke-linecap="round" class="Down"></path><path d="M466 17L465 -191" stroke-width="10" stroke="url(#SvgjsLinearGradient1048)" stroke-linecap="round" class="Up"></path><path d="M1346 309L1345 15" stroke-width="8" stroke="url(#SvgjsLinearGradient1048)" stroke-linecap="round" class="Up"></path><path d="M416 265L415 630" stroke-width="6" stroke="url(#SvgjsLinearGradient1048)" stroke-linecap="round" class="Up"></path><path d="M80 100L79 -77" stroke-width="10" stroke="url(#SvgjsLinearGradient1049)" stroke-linecap="round" class="Down"></path></g><defs><mask id="SvgjsMask1047"><rect width="1440" height="560" fill="#ffffff"></rect></mask><linearGradient x1="0%" y1="100%" x2="0%" y2="0%" id="SvgjsLinearGradient1048"><stop stop-color="rgba(255, 137, 6, 0)" offset="0"></stop><stop stop-color="rgba(255, 137, 6, 1)" offset="1"></stop></linearGradient><linearGradient x1="0%" y1="0%" x2="0%" y2="100%" id="SvgjsLinearGradient1049"><stop stop-color="rgba(255, 137, 6, 0)" offset="0"></stop><stop stop-color="rgba(255, 137, 6, 1)" offset="1"></stop></linearGradient></defs></svg>